<svg width="86" height="49" fill="none" xmlns="http://www.w3.org/2000/svg"><path d="M33.184 9.739L17.67 8.603C44.86 1.846 64.375-.587 70.916.117 77.456.819 84.7 4.874 85.24 12.44c.54 7.568.378 12.434.378 12.434-1.405 5.676-15.946 12.217-15.946 12.217s-4.109-6.92-4.217-11.136c-.108-4.217.703-7.19.703-7.19 3.027-1.243 9.298-2.973 10.92-6.378 4.432-9.298-17.677-6.65-21.245-6.271-7.568.81-15.19 1.946-22.65 3.622z" fill="url(#paint0_linear_39_2330)"/><path d="M1.67 19.145c.972-2.865 2.648-5.568 5.35-6.703 0 0 .055 0 .055-.054l13.082-5.784a7.495 7.495 0 012.703-.81C29.4 5.197 36.535 6.82 43.293 7.9c.216.054.432.054.649.108l.648.163c6.812 1.513 13.893 2.648 20.542 5.784 4 1.892 6.487 6.162 7.838 10.163 2.217 6.757 1.136 14.325-3.675 17.352h-.055c-.648.378-1.297.703-2.054.919L54.97 48.012c-1.675.865-3.675 1.189-6.108.865-7.676-1.028-17.947-3.136-17.947-3.136s-10.217-1.838-17.947-3.73c-10.379-2.649-14-14.757-11.298-22.866z" fill="url(#paint1_linear_39_2330)"/><path d="M1.669 19.144c1.189-3.513 3.514-6.865 7.514-7.243 6.54-.595 13.676 1.027 20.433 2.108.216.054.433.054.649.108l.649.162c6.81 1.514 13.892 2.65 20.541 5.784 4 1.892 6.487 6.163 7.839 10.163 3.027 9.19-.108 20.001-10.487 18.596-7.677-1.027-17.947-3.136-17.947-3.136s-10.217-1.837-17.947-3.73C2.588 39.362-1.034 27.253 1.669 19.144z" fill="url(#paint2_linear_39_2330)"/><path d="M4.101 20.442c1.081-3.135 3.19-6.108 6.811-6.433 5.946-.486 12.433.92 18.596 1.892.216.054.378.054.595.108.216.055.378.109.594.109 6.163 1.351 12.65 2.378 18.65 5.135 3.676 1.676 5.892 5.46 7.135 9.028 2.757 8.162-.108 17.73-9.514 16.541-6.973-.919-16.27-2.81-16.27-2.81s-9.299-1.623-16.326-3.352C4.912 38.334 1.668 27.632 4.1 20.442z" fill="url(#paint3_linear_39_2330)"/><path d="M31.346 11.307l5.622-1.892c.216-.054.486-.108.756 0l10.325 2.27c.379.054.54.54.217.649l-5.622 1.892c-.217.054-.487.108-.757 0l-10.325-2.27c-.324-.055-.54-.541-.216-.65z" fill="url(#paint4_linear_39_2330)"/><path d="M29.508 15.9c.217.055.379.055.595.109.216.054.378.108.595.108l12.217 30.11a262.208 262.208 0 01-12.001-2.162L18.75 14.225c3.622.433 7.244 1.135 10.757 1.676z" fill="url(#paint5_linear_39_2330)"/><path d="M42.104 18.658L53.13 45.687c-1.621.973-3.622 1.46-6.162 1.135-.163 0-.379-.054-.595-.054L34.21 16.928c2.649.487 5.298 1.027 7.893 1.73z" fill="url(#paint6_linear_39_2330)"/><defs><linearGradient id="paint0_linear_39_2330" x1="58.858" y1="-13.286" x2="48.281" y2="30.61" gradientUnits="userSpaceOnUse"><stop stop-color="#EEBA9C"/><stop offset=".989" stop-color="#EB8382"/></linearGradient><linearGradient id="paint1_linear_39_2330" x1="15.908" y1="8.232" x2="69.615" y2="55.876" gradientUnits="userSpaceOnUse"><stop stop-color="#826F8C"/><stop offset=".995" stop-color="#446381"/></linearGradient><linearGradient id="paint2_linear_39_2330" x1="19.53" y1="4.592" x2="47.032" y2="69.467" gradientUnits="userSpaceOnUse"><stop stop-color="#E474C6"/><stop offset=".989" stop-color="#0E7CF7"/></linearGradient><linearGradient id="paint3_linear_39_2330" x1="27.46" y1="13.379" x2="35.569" y2="61.33" gradientUnits="userSpaceOnUse"><stop stop-color="#D2F9FF"/><stop offset=".995" stop-color="#618DD6"/></linearGradient><linearGradient id="paint4_linear_39_2330" x1="36.751" y1="5.531" x2="43.626" y2="19.634" gradientUnits="userSpaceOnUse"><stop stop-color="#6F469E"/><stop offset="1" stop-color="#360F6E"/></linearGradient><linearGradient id="paint5_linear_39_2330" x1="42.457" y1="48.505" x2="-35.406" y2="-75.036" gradientUnits="userSpaceOnUse"><stop stop-color="#D2F9FF"/><stop offset=".436" stop-color="#A0CAED"/><stop offset=".995" stop-color="#618DD6"/></linearGradient><linearGradient id="paint6_linear_39_2330" x1="57.956" y1="49.643" x2="-18.906" y2="-45.377" gradientUnits="userSpaceOnUse"><stop stop-color="#D2F9FF"/><stop offset=".995" stop-color="#618DD6"/></linearGradient></defs></svg>