<svg width="74" height="53" fill="none" xmlns="http://www.w3.org/2000/svg"><path d="M14.752 1.634C17.278 1.11 19.802.8 22.326.76c.86.004 1.552.867 1.547 1.94-.065 2.147-.29 4.293-.731 6.385-3.055-.875-6.168-1.16-9.28-1.23.06-1.556-.092-3.114-.299-4.618-.157-.699.383-1.447 1.19-1.604z" fill="url(#paint0_linear_39_2367)"/><path d="M59.254 1.866c-2.52-.55-5.041-.885-7.564-.952-.859-.005-1.561.85-1.567 1.924.043 2.148.246 4.296.665 6.392 3.064-.843 6.18-1.095 9.293-1.133-.046-1.557.123-3.113.346-4.615.165-.697-.368-1.451-1.173-1.616z" fill="url(#paint1_linear_39_2367)"/><path d="M72.605 36.077c-.576-2.955-1.473-5.912-2.157-8.6-1.527-5.591-3.485-11.077-5.55-16.456-1.378-3.55-4.748-5.93-8.559-5.95l-2.093-.01c-2.255-.012-4.46.835-6.186 2.33l-1.618 1.44c-1.942 1.762-4.524 2.715-7.154 2.7l-2.2-.01-2.202-.012a10.695 10.695 0 01-7.125-2.775l-1.603-1.458c-1.71-1.512-3.853-2.382-6.161-2.394l-1.986-.01c-3.812-.02-7.206 2.324-8.62 5.86-2.122 5.411-4.136 10.823-5.722 16.397-.766 2.68-1.64 5.575-2.246 8.578-.715 3.432-1.055 6.866-.374 10.036 1.257 5.966 8.918 9.066 13.824 4.958 2.696-2.241 6.693-6.837 9.448-10.205a10.628 10.628 0 018.233-3.822l4.51.023 4.509.024c3.167.017 6.166 1.482 8.193 3.908 2.72 3.342 6.668 8.033 9.34 10.302 4.864 4.159 12.556 1.139 13.876-4.813.607-3.164.303-6.602-.377-10.04z" fill="url(#paint2_linear_39_2367)"/><path d="M72.614 34.199c-.575-2.956-1.472-5.913-2.156-8.6-1.528-5.592-3.486-11.078-5.551-16.457-1.377-3.55-4.747-5.93-8.558-5.95l-2.094-.01c-2.255-.012-4.46.836-6.186 2.33l-1.618 1.44c-1.941 1.762-4.523 2.715-7.154 2.701l-2.2-.011-2.201-.012a10.695 10.695 0 01-7.126-2.775l-1.603-1.457c-1.71-1.512-3.852-2.382-6.16-2.394l-1.987-.01c-3.811-.02-7.205 2.324-8.62 5.86C7.28 14.21 5.264 19.675 3.678 25.25c-.765 2.68-1.64 5.574-2.245 8.577-.716 3.432-1.056 6.866-.375 10.037 1.258 5.965 8.918 9.065 13.825 4.957 2.696-2.24 6.692-6.837 9.447-10.204a10.628 10.628 0 018.234-3.823l4.509.024 4.51.023c3.166.017 6.165 1.482 8.192 3.908 2.72 3.343 6.669 8.033 9.341 10.302 4.864 4.159 12.556 1.14 13.875-4.813.607-3.164.303-6.655-.377-10.04z" fill="url(#paint3_linear_39_2367)"/><path d="M72.903 40.588c-1.311 4.395-9 6.664-13.868 3.525-2.676-1.678-6.63-5.135-9.355-7.618-2.03-1.836-5.031-2.925-8.198-2.942l-4.51-.023-4.509-.024c-3.167-.016-6.179 1.042-8.228 2.856-2.75 2.456-6.741 5.87-9.434 7.52-4.9 3.035-12.565.74-13.83-3.668a8.841 8.841 0 01-.314-1.72c-.117 1.825-.073 3.65.294 5.37C2.21 49.83 9.87 52.93 14.775 48.821c2.696-2.24 6.693-6.836 9.448-10.204a10.628 10.628 0 018.233-3.822l4.51.023 4.509.024c3.167.016 6.166 1.481 8.193 3.907 2.72 3.343 6.669 8.034 9.34 10.302 4.864 4.16 12.557 1.14 13.876-4.813.385-1.715.448-3.54.35-5.366a9.664 9.664 0 01-.331 1.716z" fill="url(#paint4_linear_39_2367)"/><path d="M28.008 33.376a6.388 6.388 0 10.066-12.777 6.388 6.388 0 00-.066 12.777z" fill="url(#paint5_linear_39_2367)"/><path d="M28.012 32.517a5.53 5.53 0 10.058-11.058 5.53 5.53 0 00-.058 11.058z" fill="url(#paint6_linear_39_2367)"/><path d="M27.387 28.863a4.617 4.617 0 10.048-9.233 4.617 4.617 0 00-.048 9.233z" fill="url(#paint7_linear_39_2367)"/><path d="M31.223 24.266a3.826 3.826 0 00-3.792-3.831 3.826 3.826 0 00-3.831 3.792 3.826 3.826 0 003.791 3.83c2.094-.042 3.82-1.697 3.832-3.79z" fill="url(#paint8_linear_39_2367)"/><path d="M43.414 33.456a6.388 6.388 0 10.067-12.776 6.388 6.388 0 00-.067 12.776z" fill="url(#paint9_linear_39_2367)"/><path d="M43.419 32.597a5.53 5.53 0 10.057-11.058 5.53 5.53 0 00-.057 11.058z" fill="url(#paint10_linear_39_2367)"/><path d="M42.847 28.944a4.617 4.617 0 10.048-9.234 4.617 4.617 0 00-.048 9.233z" fill="url(#paint11_linear_39_2367)"/><path d="M46.629 24.347a3.826 3.826 0 00-3.791-3.832 3.826 3.826 0 00-3.832 3.792 3.826 3.826 0 003.792 3.831c2.147-.042 3.82-1.698 3.831-3.791z" fill="url(#paint12_linear_39_2367)"/><path d="M58.18 12.113c-.005 1.235-1.191 2.195-2.64 2.188-1.45-.008-2.626-1.034-2.62-2.215.007-1.235 1.193-2.195 2.642-2.187 1.45-.046 2.625.98 2.619 2.214z" fill="url(#paint13_linear_39_2367)"/><path d="M55.541 13.871c1.156.006 2.098-.782 2.103-1.76.005-.979-.928-1.777-2.084-1.783-1.157-.006-2.098.782-2.103 1.76-.005.979.928 1.777 2.084 1.783z" fill="url(#paint14_linear_39_2367)"/><path d="M58.138 20.487c-.007 1.235-1.193 2.195-2.642 2.188-1.45-.008-2.625-1.034-2.62-2.215.007-1.235 1.193-2.195 2.643-2.187 1.449.007 2.625.98 2.619 2.214z" fill="url(#paint15_linear_39_2367)"/><path d="M55.498 22.245c1.156.006 2.098-.782 2.103-1.76.005-.979-.928-1.777-2.085-1.783-1.156-.006-2.097.782-2.102 1.76-.006.979.928 1.777 2.084 1.783z" fill="url(#paint16_linear_39_2367)"/><path d="M62.615 16.27c-.006 1.235-1.192 2.195-2.642 2.187-1.45-.008-2.625-1.034-2.619-2.215.007-1.234 1.193-2.194 2.642-2.187 1.45.008 2.625.98 2.619 2.215z" fill="url(#paint17_linear_39_2367)"/><path d="M62.078 16.267c-.005.966-.922 1.767-2.103 1.76-1.127-.005-2.09-.815-2.084-1.782.005-.966.922-1.766 2.103-1.76 1.127.006 2.09.816 2.084 1.782z" fill="url(#paint18_linear_39_2367)"/><path d="M54.294 16.227c-.006 1.234-1.192 2.195-2.641 2.187-1.45-.008-2.625-1.034-2.62-2.215.007-1.234 1.193-2.194 2.643-2.187 1.449.008 2.625.98 2.618 2.215z" fill="url(#paint19_linear_39_2367)"/><path d="M53.758 16.224c-.005.966-.922 1.767-2.103 1.76-1.127-.005-2.09-.816-2.084-1.782.005-.966.921-1.767 2.102-1.76 1.128.005 2.09.816 2.085 1.782z" fill="url(#paint20_linear_39_2367)"/><path d="M17.66 20.599a6.066 6.066 0 10.063-12.132A6.066 6.066 0 0017.66 20.6z" fill="url(#paint21_linear_39_2367)"/><path d="M17.663 19.955A5.422 5.422 0 1017.72 9.11a5.422 5.422 0 00-.056 10.844z" fill="url(#paint22_linear_39_2367)"/><path d="M20.865 13.368l-1.503-.008a.481.481 0 01-.48-.485l.007-1.503a.481.481 0 00-.48-.486l-1.45-.007a.481.481 0 00-.486.48l-.007 1.503a.481.481 0 01-.486.48l-1.503-.007a.481.481 0 00-.486.48l-.007 1.45a.481.481 0 00.48.486l1.503.008a.481.481 0 01.481.485l-.008 1.503a.481.481 0 00.48.486l1.45.007a.481.481 0 00.486-.48l.008-1.503a.481.481 0 01.485-.48l1.503.007a.481.481 0 00.486-.48l.008-1.45c-.053-.269-.266-.485-.481-.486z" fill="url(#paint23_linear_39_2367)"/><path d="M35.353 14.571l-5.53-.029a.423.423 0 00-.43.428l-.009 1.503a.423.423 0 00.427.431l5.53.03a.423.423 0 00.431-.428l.008-1.503a.423.423 0 00-.427-.432z" fill="url(#paint24_linear_39_2367)"/><path d="M43.566 14.614l-5.53-.029a.424.424 0 00-.431.427l-.008 1.503a.423.423 0 00.427.432l5.53.029a.423.423 0 00.431-.427l.008-1.503c.001-.269-.159-.43-.427-.432z" fill="url(#paint25_linear_39_2367)"/><defs><linearGradient id="paint0_linear_39_2367" x1="19.833" y1="-.402" x2="18.221" y2="6.505" gradientUnits="userSpaceOnUse"><stop stop-color="#E474C6"/><stop offset=".989" stop-color="#0E7CF7"/></linearGradient><linearGradient id="paint1_linear_39_2367" x1="52.118" y1="-.373" x2="55.601" y2="6.028" gradientUnits="userSpaceOnUse"><stop stop-color="#E474C6"/><stop offset=".989" stop-color="#0E7CF7"/></linearGradient><linearGradient id="paint2_linear_39_2367" x1="37.125" y1="13.96" x2="36.937" y2="50.023" gradientUnits="userSpaceOnUse"><stop stop-color="#826F8C"/><stop offset="1" stop-color="#446381"/></linearGradient><linearGradient id="paint3_linear_39_2367" x1="37.365" y1="4.229" x2="36.668" y2="70.752" gradientUnits="userSpaceOnUse"><stop stop-color="#826F8C"/><stop offset=".995" stop-color="#446381"/></linearGradient><linearGradient id="paint4_linear_39_2367" x1="38.621" y1="1.185" x2="36.822" y2="44.243" gradientUnits="userSpaceOnUse"><stop stop-color="#8F4EB6"/><stop offset=".995" stop-color="#446381"/></linearGradient><linearGradient id="paint5_linear_39_2367" x1="28.226" y1="20.309" x2="27.901" y2="32.299" gradientUnits="userSpaceOnUse"><stop stop-color="#8F4EB6"/><stop offset=".995" stop-color="#5141AE"/></linearGradient><linearGradient id="paint6_linear_39_2367" x1="28.063" y1="23.585" x2="27.977" y2="40.129" gradientUnits="userSpaceOnUse"><stop stop-color="#6F469E"/><stop offset="1" stop-color="#360F6E"/></linearGradient><linearGradient id="paint7_linear_39_2367" x1="22.834" y1="24.201" x2="32.03" y2="24.249" gradientUnits="userSpaceOnUse"><stop stop-color="#CB9DFF"/><stop offset=".989" stop-color="#796AFB"/></linearGradient><linearGradient id="paint8_linear_39_2367" x1="27.132" y1="21.697" x2="28.39" y2="32.295" gradientUnits="userSpaceOnUse"><stop stop-color="#CB9DFF"/><stop offset=".989" stop-color="#796AFB"/></linearGradient><linearGradient id="paint9_linear_39_2367" x1="43.41" y1="18.109" x2="43.508" y2="32.946" gradientUnits="userSpaceOnUse"><stop stop-color="#8F4EB6"/><stop offset=".995" stop-color="#5141AE"/></linearGradient><linearGradient id="paint10_linear_39_2367" x1="43.487" y1="23.666" x2="43.401" y2="40.209" gradientUnits="userSpaceOnUse"><stop stop-color="#6F469E"/><stop offset="1" stop-color="#360F6E"/></linearGradient><linearGradient id="paint11_linear_39_2367" x1="38.258" y1="24.282" x2="47.454" y2="24.329" gradientUnits="userSpaceOnUse"><stop stop-color="#CB9DFF"/><stop offset=".989" stop-color="#796AFB"/></linearGradient><linearGradient id="paint12_linear_39_2367" x1="42.332" y1="19.893" x2="43.59" y2="30.491" gradientUnits="userSpaceOnUse"><stop stop-color="#CB9DFF"/><stop offset=".989" stop-color="#796AFB"/></linearGradient><linearGradient id="paint13_linear_39_2367" x1="55.621" y1="7.614" x2="55.534" y2="15.973" gradientUnits="userSpaceOnUse"><stop stop-color="#8F4EB6"/><stop offset=".995" stop-color="#5141AE"/></linearGradient><linearGradient id="paint14_linear_39_2367" x1="54.925" y1="8.457" x2="56.115" y2="15.115" gradientUnits="userSpaceOnUse"><stop stop-color="#D2F9FF"/><stop offset=".995" stop-color="#618DD6"/></linearGradient><linearGradient id="paint15_linear_39_2367" x1="55.609" y1="16.354" x2="55.489" y2="22.699" gradientUnits="userSpaceOnUse"><stop stop-color="#8F4EB6"/><stop offset=".995" stop-color="#5141AE"/></linearGradient><linearGradient id="paint16_linear_39_2367" x1="55.042" y1="17.786" x2="55.978" y2="22.955" gradientUnits="userSpaceOnUse"><stop stop-color="#D2F9FF"/><stop offset=".995" stop-color="#618DD6"/></linearGradient><linearGradient id="paint17_linear_39_2367" x1="60.062" y1="10.872" x2="59.938" y2="17.961" gradientUnits="userSpaceOnUse"><stop stop-color="#8F4EB6"/><stop offset=".995" stop-color="#5141AE"/></linearGradient><linearGradient id="paint18_linear_39_2367" x1="59.005" y1="13.185" x2="60.9" y2="19.235" gradientUnits="userSpaceOnUse"><stop stop-color="#D2F9FF"/><stop offset=".995" stop-color="#618DD6"/></linearGradient><linearGradient id="paint19_linear_39_2367" x1="51.606" y1="12.28" x2="51.703" y2="18.846" gradientUnits="userSpaceOnUse"><stop stop-color="#8F4EB6"/><stop offset=".995" stop-color="#5141AE"/></linearGradient><linearGradient id="paint20_linear_39_2367" x1="51.133" y1="13.74" x2="52.244" y2="18.91" gradientUnits="userSpaceOnUse"><stop stop-color="#D2F9FF"/><stop offset=".995" stop-color="#618DD6"/></linearGradient><linearGradient id="paint21_linear_39_2367" x1="17.453" y1="3.993" x2="17.878" y2="23.252" gradientUnits="userSpaceOnUse"><stop stop-color="#8F4EB6"/><stop offset=".995" stop-color="#5141AE"/></linearGradient><linearGradient id="paint22_linear_39_2367" x1="20.539" y1="3.261" x2="16.07" y2="20.92" gradientUnits="userSpaceOnUse"><stop stop-color="#E474C6"/><stop offset=".989" stop-color="#0E7CF7"/></linearGradient><linearGradient id="paint23_linear_39_2367" x1="15.894" y1="8.66" x2="18.648" y2="17.691" gradientUnits="userSpaceOnUse"><stop stop-color="#D2F9FF"/><stop offset=".995" stop-color="#618DD6"/></linearGradient><linearGradient id="paint24_linear_39_2367" x1="32.599" y1="13.984" x2="32.48" y2="20.111" gradientUnits="userSpaceOnUse"><stop stop-color="#E474C6"/><stop offset=".989" stop-color="#7142A2"/></linearGradient><linearGradient id="paint25_linear_39_2367" x1="40.842" y1="14.145" x2="40.723" y2="20.272" gradientUnits="userSpaceOnUse"><stop stop-color="#E474C6"/><stop offset=".989" stop-color="#7142A2"/></linearGradient></defs></svg>