<svg width="174" height="56" fill="none" xmlns="http://www.w3.org/2000/svg"><g filter="url(#filter0_d_39_3503)"><rect x="127" y="9" width="40" height="40" rx="20" fill="#FCD8CB"/></g><path d="M147.012 23.877a5.126 5.126 0 00-3.635 8.75 5.127 5.127 0 103.635-8.75zm0 8.459a3.332 3.332 0 11-.015-6.663 3.332 3.332 0 01.015 6.663zm6.525-8.677a1.197 1.197 0 01-1.428 1.172 1.194 1.194 0 11.691-2.277 1.195 1.195 0 01.737 1.105zm3.395 1.215a5.917 5.917 0 00-1.615-4.19 5.958 5.958 0 00-4.19-1.615c-1.65-.092-6.599-.092-8.249 0a5.951 5.951 0 00-4.193 1.615 5.936 5.936 0 00-1.614 4.19c-.093 1.65-.093 6.6 0 8.25a5.918 5.918 0 001.614 4.192 5.966 5.966 0 004.19 1.615c1.65.092 6.6.092 8.25 0a5.918 5.918 0 004.189-1.615 5.953 5.953 0 001.615-4.19c.093-1.65.093-6.595 0-8.25l.003-.002zm-2.133 10.034a3.36 3.36 0 01-1.899 1.9 22.049 22.049 0 01-5.888.393 22.206 22.206 0 01-5.894-.403 3.364 3.364 0 01-1.9-1.9 22.09 22.09 0 01-.413-5.894 22.253 22.253 0 01.403-5.895 3.377 3.377 0 011.9-1.9c1.941-.4 3.927-.536 5.904-.405a22.21 22.21 0 015.895.403 3.374 3.374 0 011.9 1.9 22.04 22.04 0 01.402 5.894 22.016 22.016 0 01-.41 5.907z" fill="#446381"/><g filter="url(#filter1_d_39_3503)"><rect x="67" y="9" width="40" height="40" rx="20" fill="#FCD8CB"/></g><path d="M95.947 24.926c.013.178.013.355.013.533a11.582 11.582 0 01-11.663 11.663A11.586 11.586 0 0178 35.277c.329.037.66.054.99.052a8.211 8.211 0 005.09-1.751 4.106 4.106 0 01-3.834-2.84 4.34 4.34 0 001.845-.075 4.1 4.1 0 01-3.279-4.025v-.05a4.126 4.126 0 001.854.521 4.106 4.106 0 01-1.27-5.484 11.652 11.652 0 008.452 4.287 4.628 4.628 0 01-.1-.94 4.104 4.104 0 017.095-2.8 8.071 8.071 0 002.602-.99 4.089 4.089 0 01-1.802 2.258A8.217 8.217 0 0098 22.797a8.812 8.812 0 01-2.053 2.129z" fill="#446381"/><g filter="url(#filter2_d_39_3503)"><rect x="9" y="9" width="40" height="40" rx="20" fill="#FCD8CB"/></g><path d="M32.653 30.256l.554-3.617h-3.471v-2.356a1.809 1.809 0 012.038-1.955h1.579v-3.071a19.245 19.245 0 00-2.801-.244 4.416 4.416 0 00-4.727 4.87v2.756h-3.178v3.617h3.178V39h3.91v-8.744h2.918z" fill="#446381"/><defs><filter id="filter0_d_39_3503" x="118" y="0" width="56" height="56" filterUnits="userSpaceOnUse" color-interpolation-filters="sRGB"><feFlood flood-opacity="0" result="BackgroundImageFix"/><feColorMatrix in="SourceAlpha" values="0 0 0 0 0 0 0 0 0 0 0 0 0 0 0 0 0 0 127 0" result="hardAlpha"/><feOffset dx="-1" dy="-1"/><feGaussianBlur stdDeviation="4"/><feComposite in2="hardAlpha" operator="out"/><feColorMatrix values="0 0 0 0 1 0 0 0 0 1 0 0 0 0 1 0 0 0 0.08 0"/><feBlend in2="BackgroundImageFix" result="effect1_dropShadow_39_3503"/><feBlend in="SourceGraphic" in2="effect1_dropShadow_39_3503" result="shape"/></filter><filter id="filter1_d_39_3503" x="58" y="0" width="56" height="56" filterUnits="userSpaceOnUse" color-interpolation-filters="sRGB"><feFlood flood-opacity="0" result="BackgroundImageFix"/><feColorMatrix in="SourceAlpha" values="0 0 0 0 0 0 0 0 0 0 0 0 0 0 0 0 0 0 127 0" result="hardAlpha"/><feOffset dx="-1" dy="-1"/><feGaussianBlur stdDeviation="4"/><feComposite in2="hardAlpha" operator="out"/><feColorMatrix values="0 0 0 0 1 0 0 0 0 1 0 0 0 0 1 0 0 0 0.08 0"/><feBlend in2="BackgroundImageFix" result="effect1_dropShadow_39_3503"/><feBlend in="SourceGraphic" in2="effect1_dropShadow_39_3503" result="shape"/></filter><filter id="filter2_d_39_3503" x="0" y="0" width="56" height="56" filterUnits="userSpaceOnUse" color-interpolation-filters="sRGB"><feFlood flood-opacity="0" result="BackgroundImageFix"/><feColorMatrix in="SourceAlpha" values="0 0 0 0 0 0 0 0 0 0 0 0 0 0 0 0 0 0 127 0" result="hardAlpha"/><feOffset dx="-1" dy="-1"/><feGaussianBlur stdDeviation="4"/><feComposite in2="hardAlpha" operator="out"/><feColorMatrix values="0 0 0 0 1 0 0 0 0 1 0 0 0 0 1 0 0 0 0.08 0"/><feBlend in2="BackgroundImageFix" result="effect1_dropShadow_39_3503"/><feBlend in="SourceGraphic" in2="effect1_dropShadow_39_3503" result="shape"/></filter></defs></svg>