<svg width="8" height="8" fill="none" xmlns="http://www.w3.org/2000/svg"><g clip-path="url(#clip0_39_2350)"><path d="M2.282 7.014c-.164.084-.35-.064-.317-.251l.352-2.006L.823 3.333c-.14-.133-.067-.376.12-.403l2.077-.295L3.947.8a.218.218 0 01.393 0l.926 1.835 2.077.295c.187.027.26.27.12.403L5.969 4.757l.352 2.006c.033.187-.152.335-.316.25l-1.862-.956-1.862.957z" fill="#FFB359"/></g><defs><clipPath id="clip0_39_2350"><path fill="#fff" transform="translate(.75 .464)" d="M0 0h6.786v6.786H0z"/></clipPath></defs></svg>